<svg width="113" height="104" viewBox="0 0 113 104" fill="none" xmlns="http://www.w3.org/2000/svg">
<g filter="url(#filter0_d_2005_56)">
<rect x="19" y="19" width="75" height="75" rx="37.5" fill="url(#paint0_linear_2005_56)"/>
<rect x="19" y="19" width="75" height="75" rx="37.5" stroke="#F2F5F1" stroke-width="3"/>
<path d="M56.5 61C58.99 61 61 58.99 61 56.5V47.5C61 45.01 58.99 43 56.5 43C54.01 43 52 45.01 52 47.5V56.5C52 58.99 54.01 61 56.5 61ZM55 47.5C55 46.675 55.675 46 56.5 46C57.325 46 58 46.675 58 47.5V56.5C58 57.325 57.325 58 56.5 58C55.675 58 55 57.325 55 56.5V47.5ZM65.365 56.5C64.63 56.5 64.015 57.04 63.895 57.775C63.28 61.3 60.205 64 56.5 64C52.795 64 49.72 61.3 49.105 57.775C48.985 57.04 48.37 56.5 47.635 56.5C46.72 56.5 46 57.31 46.135 58.21C46.87 62.71 50.47 66.235 55 66.88V70C55 70.825 55.675 71.5 56.5 71.5C57.325 71.5 58 70.825 58 70V66.88C62.53 66.235 66.13 62.71 66.865 58.21C67.015 57.31 66.28 56.5 65.365 56.5Z" fill="#FAF8F2"/>
</g>
<defs>
<filter id="filter0_d_2005_56" x="0.5" y="0.5" width="112" height="112" filterUnits="userSpaceOnUse" color-interpolation-filters="sRGB">
<feFlood flood-opacity="0" result="BackgroundImageFix"/>
<feColorMatrix in="SourceAlpha" type="matrix" values="0 0 0 0 0 0 0 0 0 0 0 0 0 0 0 0 0 0 127 0" result="hardAlpha"/>
<feOffset/>
<feGaussianBlur stdDeviation="8.5"/>
<feComposite in2="hardAlpha" operator="out"/>
<feColorMatrix type="matrix" values="0 0 0 0 1 0 0 0 0 0.667497 0 0 0 0 0.460806 0 0 0 1 0"/>
<feBlend mode="normal" in2="BackgroundImageFix" result="effect1_dropShadow_2005_56"/>
<feBlend mode="normal" in="SourceGraphic" in2="effect1_dropShadow_2005_56" result="shape"/>
</filter>
<linearGradient id="paint0_linear_2005_56" x1="32.5" y1="23" x2="120" y2="174.554" gradientUnits="userSpaceOnUse">
<stop stop-color="#FF612B"/>
<stop offset="1" stop-color="#C04C24"/>
</linearGradient>
</defs>
</svg>
