<svg width="130" height="40" viewBox="0 0 130 40" fill="none" xmlns="http://www.w3.org/2000/svg">
  <defs>
    <!-- Gradient definition -->
    <linearGradient id="benjiGradient" x1="0%" y1="0%" x2="100%" y2="0%">
      <stop offset="0%" style="stop-color:#FF612B;stop-opacity:1" />
      <stop offset="100%" style="stop-color:#1e3a8a;stop-opacity:1" />
    </linearGradient>
  </defs>
  
  <!-- Tech-inspired rounded square -->
  <rect x="4" y="8" width="24" height="24" rx="6" fill="url(#benjiGradient)"/>
  
  <!-- Modern "B" with tech styling -->
  <path d="M12 16h4c1.2 0 2 0.6 2 1.5 0 0.6-0.3 1-0.7 1.2 0.5 0.2 0.9 0.7 0.9 1.3 0 1-0.8 1.5-2 1.5H12V16zm1.8 2.5h1.8c0.4 0 0.7-0.2 0.7-0.6s-0.3-0.6-0.7-0.6h-1.8v1.2zm0 2.5h2c0.5 0 0.8-0.3 0.8-0.7s-0.3-0.7-0.8-0.7h-2v1.4z" fill="white"/>
  
  <!-- "enji" with gradient effect -->
  <text x="36" y="26" font-family="system-ui, -apple-system, BlinkMacSystemFont, 'Segoe UI', Roboto, sans-serif" font-size="20" font-weight="600" fill="url(#benjiGradient)">enji</text>
  
  <!-- Subtitle with tech styling -->
  <text x="36" y="32" font-family="system-ui, -apple-system, BlinkMacSystemFont, 'Segoe UI', Roboto, sans-serif" font-size="8" font-weight="500" fill="#6B7280">AI • PLATFORM</text>
</svg>
