<svg width="120" height="40" viewBox="0 0 120 40" fill="none" xmlns="http://www.w3.org/2000/svg">
  <!-- Background rounded rectangle for the logo mark -->
  <rect x="2" y="6" width="28" height="28" rx="8" fill="#FF612B"/>
  
  <!-- Letter "B" in white inside the orange background -->
  <path d="M10 14h6c2 0 3.5 1 3.5 2.8 0 1.2-0.8 2.2-1.8 2.4 1.2 0.2 2.3 1.4 2.3 2.8 0 2-1.5 3-3.5 3H10V14zm3 4.5h2.5c0.8 0 1.5-0.5 1.5-1.3s-0.7-1.2-1.5-1.2H13v2.5zm0 4.5h3c0.9 0 1.5-0.6 1.5-1.4s-0.6-1.4-1.5-1.4H13V23z" fill="white"/>
  
  <!-- "enji" text in modern font -->
  <text x="38" y="26" font-family="system-ui, -apple-system, BlinkMacSystemFont, 'Segoe UI', Roboto, sans-serif" font-size="18" font-weight="600" fill="#4B4D4F">enji</text>
  
  <!-- Small "AI Platform" subtitle -->
  <text x="38" y="32" font-family="system-ui, -apple-system, BlinkMacSystemFont, 'Segoe UI', Roboto, sans-serif" font-size="8" font-weight="400" fill="#8B8B8B">AI Platform</text>
</svg>
