<svg width="130" height="40" viewBox="0 0 130 40" fill="none" xmlns="http://www.w3.org/2000/svg">
  <!-- Clean circular background -->
  <circle cx="20" cy="20" r="16" fill="#FF612B"/>
  
  <!-- Stylized "B" with clean lines -->
  <path d="M14 12h6c1.8 0 3 0.8 3 2.2 0 0.8-0.4 1.4-1 1.7 0.8 0.3 1.3 1 1.3 1.9 0 1.6-1.2 2.2-3 2.2h-6.3V12zm2.5 3.5h3c0.6 0 1-0.3 1-0.8s-0.4-0.8-1-0.8h-3v1.6zm0 3.5h3.5c0.7 0 1.2-0.4 1.2-1s-0.5-1-1.2-1h-3.5v2z" fill="white"/>
  
  <!-- "enji" with lighter weight -->
  <text x="44" y="18" font-family="system-ui, -apple-system, BlinkMacSystemFont, 'Segoe UI', Roboto, sans-serif" font-size="18" font-weight="600" fill="#4B4D4F">enji</text>
  
  <!-- Dot separator and subtitle -->
  <circle cx="44" cy="26" r="1.5" fill="#FF612B"/>
  <text x="50" y="28" font-family="system-ui, -apple-system, BlinkMacSystemFont, 'Segoe UI', Roboto, sans-serif" font-size="8" font-weight="400" fill="#8B8B8B">AI Platform</text>
</svg>
