<svg width="262" height="51" viewBox="0 0 262 51" fill="none" xmlns="http://www.w3.org/2000/svg">
<path d="M191.958 39.4896V0.53125H206.302C213.562 0.53125 218.343 4.95833 218.343 11.3333C218.343 16.2917 214.979 20.3646 209.843 21.7813L221 39.4896H215.864L205.239 22.3125H196.562V39.4896H191.958ZM205.948 4.25H196.562V18.5938H205.77C211.26 18.5938 213.916 15.2292 213.916 11.3333C213.916 7.26042 211.083 4.25 205.948 4.25Z" fill="#4B4D4F"/>
<path d="M220.646 39.4896L231.979 24.4375L221.708 10.8021H226.843L234.635 21.25L242.427 10.8021H247.385L237.114 24.2605L248.625 39.4896H243.489L234.635 27.448L225.604 39.4896H220.646Z" fill="#4B4D4F"/>
<path d="M255.885 20.8959C252.697 20.8959 250.041 18.4167 250.041 15.0521C250.041 11.6875 252.697 9.20837 255.885 9.20837C259.072 9.20837 261.729 11.6875 261.729 15.0521C261.729 18.4167 259.072 20.8959 255.885 20.8959ZM255.885 19.8334C258.541 19.8334 260.489 17.8855 260.489 15.2292C260.489 12.573 258.541 10.448 255.885 10.448C253.406 10.448 251.281 12.3959 251.281 15.2292C251.281 18.0625 253.406 19.8334 255.885 19.8334ZM253.937 17.8855V12.2188H256.416C257.479 12.2188 258.187 12.75 258.187 13.8125C258.187 14.5209 257.833 14.875 257.124 15.2292L258.541 17.7084H257.124L255.885 15.5834H254.999V17.7084H253.937V17.8855ZM256.062 13.2813H254.999V14.698H256.062C256.593 14.698 256.947 14.3438 256.947 13.9896C256.947 13.6355 256.593 13.2813 256.062 13.2813Z" fill="#4B4D4F"/>
<path d="M130.688 39.3125V9.5625H140.073V13.1042C142.021 10.4479 144.677 9.03125 148.042 9.03125C152.115 9.03125 154.948 10.9792 156.542 13.8125C158.49 10.625 162.031 9.03125 165.75 9.03125C172.302 9.03125 175.844 13.9896 175.844 20.0104V39.1354H166.281V21.4271C166.281 18.5938 164.51 16.8229 162.208 16.8229C159.906 16.8229 158.135 18.5938 158.135 21.4271V39.1354H148.573V21.4271C148.573 18.5938 146.802 16.8229 144.5 16.8229C142.198 16.8229 140.427 18.5938 140.427 21.4271V39.1354L130.688 39.3125ZM127.5 27.9792C127.5 35.5938 121.302 40.0208 113.51 40.0208C105.719 40.0208 99.5208 35.5938 99.5208 27.9792V9.5625H109.26V27.8021C109.26 30.4583 111.031 32.0521 113.51 32.0521C115.99 32.0521 117.76 30.4583 117.76 27.8021V9.5625H127.5V27.9792ZM97.0417 17.1771V9.5625H89.0729V1.94792H79.5104V28.6875C79.5104 36.125 83.9375 39.8438 91.0208 39.8438C93.1458 39.8438 95.2708 39.6667 97.2188 38.7812V31.1667C95.625 31.6979 94.3854 31.875 93.3229 31.875C90.6667 31.875 89.0729 30.6354 89.0729 27.9792V17.3542H97.0417V17.1771ZM67.2917 24.4375C67.2917 28.6875 64.1042 31.875 60.3854 31.875C56.4896 31.875 53.3021 28.6875 53.3021 24.4375C53.3021 20.1875 56.4896 17 60.3854 17C64.1042 17 67.2917 20.1875 67.2917 24.4375ZM53.3021 51V36.3021C55.7812 38.6042 58.9687 39.8438 62.5104 39.8438C70.6562 39.8438 76.8542 32.9375 76.8542 24.4375C76.8542 15.9375 70.4792 9.03125 62.5104 9.03125C58.7917 9.03125 55.4271 10.4479 52.9479 12.9271V9.5625H43.5625V51H53.3021ZM30.4583 19.8333C30.4583 26.0312 25.8542 30.4583 20.3646 30.4583C14.875 30.4583 10.2708 25.8542 10.2708 19.8333C10.2708 13.6354 14.6979 9.20833 20.3646 9.20833C26.0312 9.20833 30.4583 13.8125 30.4583 19.8333ZM20.3646 0C9.03125 0 0 8.85417 0 19.8333C0 30.8125 9.03125 39.6667 20.3646 39.6667C31.6979 39.6667 40.7292 30.9896 40.7292 19.8333C40.7292 8.67708 31.6979 0 20.3646 0Z" fill="#FF612B"/>
</svg>
