<svg width="73" height="31" viewBox="0 0 73 31" fill="none" xmlns="http://www.w3.org/2000/svg">
<rect x="72.2568" y="17.8848" width="3.44073" height="4.76923" rx="1.72037" transform="rotate(-180 72.2568 17.8848)" fill="#FF612B"/>
<rect x="65.375" y="23.8457" width="3.44073" height="16.6923" rx="1.72037" transform="rotate(-180 65.375 23.8457)" fill="#FF612B"/>
<rect x="58.4932" y="20.8652" width="3.44073" height="10.7308" rx="1.72037" transform="rotate(-180 58.4932 20.8652)" fill="#FF612B"/>
<rect x="51.6123" y="23.8457" width="3.44073" height="16.6923" rx="1.72037" transform="rotate(-180 51.6123 23.8457)" fill="#FF612B"/>
<rect x="44.7305" y="31" width="3.44073" height="31" rx="1.72037" transform="rotate(-180 44.7305 31)" fill="#FF612B"/>
<rect x="37.8486" y="25.0381" width="3.44073" height="19.0769" rx="1.72037" transform="rotate(-180 37.8486 25.0381)" fill="#FF612B"/>
<rect x="30.9668" y="22.6533" width="3.44073" height="14.3077" rx="1.72037" transform="rotate(-180 30.9668 22.6533)" fill="#FF612B"/>
<rect x="24.0859" y="28.0186" width="3.44073" height="25.0385" rx="1.72037" transform="rotate(-180 24.0859 28.0186)" fill="#FF612B"/>
<rect x="17.2041" y="25.0381" width="3.44073" height="19.0769" rx="1.72037" transform="rotate(-180 17.2041 25.0381)" fill="#FF612B"/>
<rect x="10.3262" y="20.2686" width="3.44073" height="9.53846" rx="1.72037" transform="rotate(-180 10.3262 20.2686)" fill="#FF612B"/>
<rect x="3.44092" y="17.8848" width="3.44073" height="4.76923" rx="1.72037" transform="rotate(-180 3.44092 17.8848)" fill="#FF612B"/>
</svg>
