<svg xmlns="http://www.w3.org/2000/svg" xmlns:xlink="http://www.w3.org/1999/xlink" preserveAspectRatio="xMidYMid meet" width="345" height="345" viewBox="0 0 345 345" style="width:100%;height:100%"><defs><animateTransform repeatCount="indefinite" dur="6.8s" begin="0s" xlink:href="#_R_G_L_10_G" fill="freeze" attributeName="transform" from="1 1" to="1 4.44" type="scale" additive="sum" keyTimes="0;0.0086593;0.0173186;0.0259804;0.0346397;0.043299;0.0519583;0.0606176;0.0692843;0.0779436;0.0866029;0.0952623;0.1039216;0.1125833;0.1212426;0.129902;1" values="1 1;1 0.49;1 1.33;1 1.6400000000000001;1 3.22;1 2.6;1 2.14;1 4.44;1 1;1 0.49;1 1.33;1 1.6400000000000001;1 3.22;1 2.6;1 2.14;1 4.44;1 4.44" keySplines="0.167 0.167 0.833 0.833;0.167 0.167 0.833 0.833;0.167 0.167 0.833 0.833;0.167 0.167 0.833 0.833;0.167 0.167 0.833 0.833;0.167 0.167 0.833 0.833;0.167 0.167 0.833 0.833;0.167 0.167 0.833 0.833;0.167 0.167 0.833 0.833;0.167 0.167 0.833 0.833;0.167 0.167 0.833 0.833;0.167 0.167 0.833 0.833;0.167 0.167 0.833 0.833;0.167 0.167 0.833 0.833;0.167 0.167 0.833 0.833;0 0 0 0" calcMode="spline"/><animateTransform repeatCount="indefinite" dur="6.8s" begin="0s" xlink:href="#_R_G_L_9_G" fill="freeze" attributeName="transform" from="1 1" to="1 1.11" type="scale" additive="sum" keyTimes="0;0.0086593;0.0173186;0.0259804;0.0346397;0.043299;0.0519583;0.0606176;0.0692843;0.0779436;0.0866029;0.0952623;0.1039216;0.1125833;0.1212426;0.129902;1" values="1 1;1 0.52;1 0.74;1 0.42;1 1.3900000000000001;1 1.18;1 0.9;1 1.51;1 1;1 0.56;1 0.88;1 0.53;1 1.43;1 1.22;1 0.75;1 1.11;1 1.11" keySplines="0.167 0.167 0.833 0.833;0.167 0.167 0.833 0.833;0.167 0.167 0.833 0.833;0.167 0.167 0.833 0.833;0.167 0.167 0.833 0.833;0.167 0.167 0.833 0.833;0.167 0.167 0.833 0.833;0.167 0.167 0.833 0.833;0.167 0.167 0.833 0.833;0.167 0.167 0.833 0.833;0.167 0.167 0.833 0.833;0.167 0.167 0.833 0.833;0.167 0.167 0.833 0.833;0.167 0.167 0.833 0.833;0.167 0.167 0.833 0.833;0 0 0 0" calcMode="spline"/><animateTransform repeatCount="indefinite" dur="6.8s" begin="0s" xlink:href="#_R_G_L_8_G" fill="freeze" attributeName="transform" from="1 1" to="1 1.35" type="scale" additive="sum" keyTimes="0;0.0086593;0.0173186;0.0259804;0.0346397;0.043299;0.0519583;0.0606176;0.0692843;0.0779436;0.0866029;0.0952623;0.1039216;0.1125833;0.1212426;0.129902;1" values="1 1;1 0.9;1 1.1;1 1.43;1 1.6600000000000001;1 1.54;1 1.6600000000000001;1 2.68;1 1;1 1.47;1 1.16;1 0.81;1 0.61;1 0.43;1 0.71;1 1.35;1 1.35" keySplines="0.167 0.167 0.833 0.833;0.167 0.167 0.833 0.833;0.167 0.167 0.833 0.833;0.167 0.167 0.833 0.833;0.167 0.167 0.833 0.833;0.167 0.167 0.833 0.833;0.167 0.167 0.833 0.833;0.167 0.167 0.833 0.833;0.167 0.167 0.833 0.833;0.167 0.167 0.833 0.833;0.167 0.167 0.833 0.833;0.167 0.167 0.833 0.833;0.167 0.167 0.833 0.833;0.167 0.167 0.833 0.833;0.167 0.167 0.833 0.833;0 0 0 0" calcMode="spline"/><animateTransform repeatCount="indefinite" dur="6.8s" begin="0s" xlink:href="#_R_G_L_7_G" fill="freeze" attributeName="transform" from="1 1" to="1 3.19" type="scale" additive="sum" keyTimes="0;0.0086593;0.0173186;0.0259804;0.0346397;0.043299;0.0519583;0.0606176;0.0692843;0.0779436;0.0866029;0.0952623;0.1039216;0.1125833;0.1212426;0.129902;1" values="1 1;1 1.47;1 1.16;1 0.81;1 0.61;1 0.43;1 0.71;1 1.35;1 1;1 0.49;1 1.33;1 1.6400000000000001;1 3.22;1 2.6;1 2.14;1 3.19;1 3.19" keySplines="0.167 0.167 0.833 0.833;0.167 0.167 0.833 0.833;0.167 0.167 0.833 0.833;0.167 0.167 0.833 0.833;0.167 0.167 0.833 0.833;0.167 0.167 0.833 0.833;0.167 0.167 0.833 0.833;0.167 0.167 0.833 0.833;0.167 0.167 0.833 0.833;0.167 0.167 0.833 0.833;0.167 0.167 0.833 0.833;0.167 0.167 0.833 0.833;0.167 0.167 0.833 0.833;0.167 0.167 0.833 0.833;0.167 0.167 0.833 0.833;0 0 0 0" calcMode="spline"/><animateTransform repeatCount="indefinite" dur="6.8s" begin="0s" xlink:href="#_R_G_L_6_G" fill="freeze" attributeName="transform" from="1 1" to="1 1.35" type="scale" additive="sum" keyTimes="0;0.0086593;0.0173186;0.0259804;0.0346397;0.043299;0.0519583;0.0606176;0.0692843;0.0779436;0.0866029;0.0952623;0.1039216;0.1125833;0.1212426;0.129902;1" values="1 1;1 0.61;1 0.35000000000000003;1 0.6;1 0.3;1 0.07;1 0.26;1 0.6;1 1;1 1.47;1 1.16;1 0.81;1 0.61;1 0.43;1 0.71;1 1.35;1 1.35" keySplines="0.167 0.167 0.833 0.833;0.167 0.167 0.833 0.833;0.167 0.167 0.833 0.833;0.167 0.167 0.833 0.833;0.167 0.167 0.833 0.833;0.167 0.167 0.833 0.833;0.167 0.167 0.833 0.833;0.167 0.167 0.833 0.833;0.167 0.167 0.833 0.833;0.167 0.167 0.833 0.833;0.167 0.167 0.833 0.833;0.167 0.167 0.833 0.833;0.167 0.167 0.833 0.833;0.167 0.167 0.833 0.833;0.167 0.167 0.833 0.833;0 0 0 0" calcMode="spline"/><animateTransform repeatCount="indefinite" dur="6.8s" begin="0s" xlink:href="#_R_G_L_5_G" fill="freeze" attributeName="transform" from="1 1" to="1 1.11" type="scale" additive="sum" keyTimes="0;0.0086593;0.0173186;0.0259804;0.0346397;0.043299;0.0519583;0.0606176;0.0692843;0.0779436;0.0866029;0.0952623;0.1039216;0.1125833;0.1212426;0.129902;1" values="1 1;1 1.42;1 1.17;1 0.97;1 0.68;1 0.38;1 0.52;1 1.05;1 1;1 0.56;1 0.88;1 0.53;1 1.43;1 1.22;1 0.75;1 1.11;1 1.11" keySplines="0.167 0.167 0.833 0.833;0.167 0.167 0.833 0.833;0.167 0.167 0.833 0.833;0.167 0.167 0.833 0.833;0.167 0.167 0.833 0.833;0.167 0.167 0.833 0.833;0.167 0.167 0.833 0.833;0.167 0.167 0.833 0.833;0.167 0.167 0.833 0.833;0.167 0.167 0.833 0.833;0.167 0.167 0.833 0.833;0.167 0.167 0.833 0.833;0.167 0.167 0.833 0.833;0.167 0.167 0.833 0.833;0.167 0.167 0.833 0.833;0 0 0 0" calcMode="spline"/><animateTransform repeatCount="indefinite" dur="6.8s" begin="0s" xlink:href="#_R_G_L_4_G" fill="freeze" attributeName="transform" from="1 1" to="1 1.35" type="scale" additive="sum" keyTimes="0;0.0086593;0.0173186;0.0259804;0.0346397;0.043299;0.0519583;0.0606176;0.0692843;0.0779436;0.0866029;0.0952623;0.1039216;0.1125833;0.1212426;0.129902;1" values="1 1;1 0.59;1 0.68;1 0.96;1 1.08;1 0.74;1 1.03;1 1.44;1 1;1 1.47;1 1.16;1 0.81;1 0.61;1 0.43;1 0.71;1 1.35;1 1.35" keySplines="0.167 0.167 0.833 0.833;0.167 0.167 0.833 0.833;0.167 0.167 0.833 0.833;0.167 0.167 0.833 0.833;0.167 0.167 0.833 0.833;0.167 0.167 0.833 0.833;0.167 0.167 0.833 0.833;0.167 0.167 0.833 0.833;0.167 0.167 0.833 0.833;0.167 0.167 0.833 0.833;0.167 0.167 0.833 0.833;0.167 0.167 0.833 0.833;0.167 0.167 0.833 0.833;0.167 0.167 0.833 0.833;0.167 0.167 0.833 0.833;0 0 0 0" calcMode="spline"/><animateTransform repeatCount="indefinite" dur="6.8s" begin="0s" xlink:href="#_R_G_L_3_G" fill="freeze" attributeName="transform" from="1 1" to="1 1.35" type="scale" additive="sum" keyTimes="0;0.0086593;0.0173186;0.0259804;0.0346397;0.043299;0.0519583;0.0606176;0.0692843;0.0779436;0.0866029;0.0952623;0.1039216;0.1125833;0.1212426;0.129902;1" values="1 1;1 1.43;1 1.61;1 1.17;1 1.48;1 1.22;1 0.81;1 0.46;1 1;1 1.47;1 1.16;1 0.81;1 0.61;1 0.43;1 0.71;1 1.35;1 1.35" keySplines="0.167 0.167 0.833 0.833;0.167 0.167 0.833 0.833;0.167 0.167 0.833 0.833;0.167 0.167 0.833 0.833;0.167 0.167 0.833 0.833;0.167 0.167 0.833 0.833;0.167 0.167 0.833 0.833;0.167 0.167 0.833 0.833;0.167 0.167 0.833 0.833;0.167 0.167 0.833 0.833;0.167 0.167 0.833 0.833;0.167 0.167 0.833 0.833;0.167 0.167 0.833 0.833;0.167 0.167 0.833 0.833;0.167 0.167 0.833 0.833;0 0 0 0" calcMode="spline"/><animateTransform repeatCount="indefinite" dur="6.8s" begin="0s" xlink:href="#_R_G_L_2_G" fill="freeze" attributeName="transform" from="1 1" to="1 1.35" type="scale" additive="sum" keyTimes="0;0.0086593;0.0173186;0.0259804;0.0346397;0.043299;0.0519583;0.0606176;0.0692843;0.0779436;0.0866029;0.0952623;0.1039216;0.1125833;0.1212426;0.129902;1" values="1 1;1 0.71;1 1.05;1 0.6;1 0.9;1 0.55;1 0.35000000000000003;1 0.17;1 1;1 1.47;1 1.16;1 0.81;1 0.61;1 0.43;1 0.71;1 1.35;1 1.35" keySplines="0.167 0.167 0.833 0.833;0.167 0.167 0.833 0.833;0.167 0.167 0.833 0.833;0.167 0.167 0.833 0.833;0.167 0.167 0.833 0.833;0.167 0.167 0.833 0.833;0.167 0.167 0.833 0.833;0.167 0.167 0.833 0.833;0.167 0.167 0.833 0.833;0.167 0.167 0.833 0.833;0.167 0.167 0.833 0.833;0.167 0.167 0.833 0.833;0.167 0.167 0.833 0.833;0.167 0.167 0.833 0.833;0.167 0.167 0.833 0.833;0 0 0 0" calcMode="spline"/><animateTransform repeatCount="indefinite" dur="6.8s" begin="0s" xlink:href="#_R_G_L_1_G" fill="freeze" attributeName="transform" from="1 1" to="1 4.44" type="scale" additive="sum" keyTimes="0;0.0086593;0.0173186;0.0259804;0.0346397;0.043299;0.0519583;0.0606176;0.0692843;0.0779436;0.0866029;0.0952623;0.1039216;0.1125833;0.1212426;0.129902;1" values="1 1;1 1.6;1 1.8;1 1.07;1 1.51;1 1.3;1 0.81;1 1.74;1 1;1 0.49;1 1.33;1 1.6400000000000001;1 3.22;1 2.6;1 2.14;1 4.44;1 4.44" keySplines="0.167 0.167 0.833 0.833;0.167 0.167 0.833 0.833;0.167 0.167 0.833 0.833;0.167 0.167 0.833 0.833;0.167 0.167 0.833 0.833;0.167 0.167 0.833 0.833;0.167 0.167 0.833 0.833;0.167 0.167 0.833 0.833;0.167 0.167 0.833 0.833;0.167 0.167 0.833 0.833;0.167 0.167 0.833 0.833;0.167 0.167 0.833 0.833;0.167 0.167 0.833 0.833;0.167 0.167 0.833 0.833;0.167 0.167 0.833 0.833;0 0 0 0" calcMode="spline"/><animateTransform repeatCount="indefinite" dur="6.8s" begin="0s" xlink:href="#_R_G_L_0_G" fill="freeze" attributeName="transform" from="1 1" to="1 1.35" type="scale" additive="sum" keyTimes="0;0.0086593;0.0173186;0.0259804;0.0346397;0.043299;0.0519583;0.0606176;0.0692843;0.0779436;0.0866029;0.0952623;0.1039216;0.1125833;0.1212426;0.129902;1" values="1 1;1 0.56;1 0.88;1 0.53;1 1.43;1 1.22;1 0.75;1 1.11;1 1;1 1.47;1 1.16;1 0.81;1 0.61;1 0.43;1 0.71;1 1.35;1 1.35" keySplines="0.167 0.167 0.833 0.833;0.167 0.167 0.833 0.833;0.167 0.167 0.833 0.833;0.167 0.167 0.833 0.833;0.167 0.167 0.833 0.833;0.167 0.167 0.833 0.833;0.167 0.167 0.833 0.833;0.167 0.167 0.833 0.833;0.167 0.167 0.833 0.833;0.167 0.167 0.833 0.833;0.167 0.167 0.833 0.833;0.167 0.167 0.833 0.833;0.167 0.167 0.833 0.833;0.167 0.167 0.833 0.833;0.167 0.167 0.833 0.833;0 0 0 0" calcMode="spline"/><animate attributeType="XML" attributeName="opacity" dur="7s" from="0" to="1" xlink:href="#time_group"/></defs><g id="_R_G"><g id="_R_G_L_10_G" transform=" translate(206.916, 172.598) rotate(-180)"><path id="_R_G_L_10_G_D_0_P_0" fill="#ff612b" fill-opacity="1" fill-rule="nonzero" d=" M1.72 -0.66 C1.72,-0.66 1.72,0.66 1.72,0.66 C1.72,1.61 0.95,2.38 0,2.38 C0,2.38 0,2.38 0,2.38 C-0.95,2.38 -1.72,1.61 -1.72,0.66 C-1.72,0.66 -1.72,-0.66 -1.72,-0.66 C-1.72,-1.61 -0.95,-2.38 0,-2.38 C0,-2.38 0,-2.38 0,-2.38 C0.95,-2.38 1.72,-1.61 1.72,-0.66z "/></g><g id="_R_G_L_9_G" transform=" translate(200.034, 172.598) rotate(-180)"><path id="_R_G_L_9_G_D_0_P_0" fill="#ff612b" fill-opacity="1" fill-rule="nonzero" d=" M1.72 -6.63 C1.72,-6.63 1.72,6.63 1.72,6.63 C1.72,7.58 0.95,8.35 0,8.35 C0,8.35 0,8.35 0,8.35 C-0.95,8.35 -1.72,7.58 -1.72,6.63 C-1.72,6.63 -1.72,-6.63 -1.72,-6.63 C-1.72,-7.58 -0.95,-8.35 0,-8.35 C0,-8.35 0,-8.35 0,-8.35 C0.95,-8.35 1.72,-7.58 1.72,-6.63z "/></g><g id="_R_G_L_8_G" transform=" translate(193.152, 172.598) rotate(-180)"><path id="_R_G_L_8_G_D_0_P_0" fill="#ff612b" fill-opacity="1" fill-rule="nonzero" d=" M1.72 -3.64 C1.72,-3.64 1.72,3.65 1.72,3.65 C1.72,4.59 0.95,5.37 0,5.37 C0,5.37 0,5.37 0,5.37 C-0.95,5.37 -1.72,4.59 -1.72,3.65 C-1.72,3.65 -1.72,-3.64 -1.72,-3.64 C-1.72,-4.59 -0.95,-5.37 0,-5.37 C0,-5.37 0,-5.37 0,-5.37 C0.95,-5.37 1.72,-4.59 1.72,-3.64z "/></g><g id="_R_G_L_7_G" transform=" translate(186.271, 172.598) rotate(-180)"><path id="_R_G_L_7_G_D_0_P_0" fill="#ff612b" fill-opacity="1" fill-rule="nonzero" d=" M1.72 -6.63 C1.72,-6.63 1.72,6.63 1.72,6.63 C1.72,7.58 0.95,8.35 0,8.35 C0,8.35 0,8.35 0,8.35 C-0.95,8.35 -1.72,7.58 -1.72,6.63 C-1.72,6.63 -1.72,-6.63 -1.72,-6.63 C-1.72,-7.58 -0.95,-8.35 0,-8.35 C0,-8.35 0,-8.35 0,-8.35 C0.95,-8.35 1.72,-7.58 1.72,-6.63z "/></g><g id="_R_G_L_6_G" transform=" translate(179.389, 172.598) rotate(-180)"><path id="_R_G_L_6_G_D_0_P_0" fill="#ff612b" fill-opacity="1" fill-rule="nonzero" d=" M1.72 -13.78 C1.72,-13.78 1.72,13.78 1.72,13.78 C1.72,14.73 0.95,15.5 0,15.5 C0,15.5 0,15.5 0,15.5 C-0.95,15.5 -1.72,14.73 -1.72,13.78 C-1.72,13.78 -1.72,-13.78 -1.72,-13.78 C-1.72,-14.73 -0.95,-15.5 0,-15.5 C0,-15.5 0,-15.5 0,-15.5 C0.95,-15.5 1.72,-14.73 1.72,-13.78z "/></g><g id="_R_G_L_5_G" transform=" translate(172.507, 172.598) rotate(-180)"><path id="_R_G_L_5_G_D_0_P_0" fill="#ff612b" fill-opacity="1" fill-rule="nonzero" d=" M1.72 -7.82 C1.72,-7.82 1.72,7.82 1.72,7.82 C1.72,8.77 0.95,9.54 0,9.54 C0,9.54 0,9.54 0,9.54 C-0.95,9.54 -1.72,8.77 -1.72,7.82 C-1.72,7.82 -1.72,-7.82 -1.72,-7.82 C-1.72,-8.77 -0.95,-9.54 0,-9.54 C0,-9.54 0,-9.54 0,-9.54 C0.95,-9.54 1.72,-8.77 1.72,-7.82z "/></g><g id="_R_G_L_4_G" transform=" translate(165.626, 172.598) rotate(-180)"><path id="_R_G_L_4_G_D_0_P_0" fill="#ff612b" fill-opacity="1" fill-rule="nonzero" d=" M1.72 -5.43 C1.72,-5.43 1.72,5.43 1.72,5.43 C1.72,6.38 0.95,7.15 0,7.15 C0,7.15 0,7.15 0,7.15 C-0.95,7.15 -1.72,6.38 -1.72,5.43 C-1.72,5.43 -1.72,-5.43 -1.72,-5.43 C-1.72,-6.38 -0.95,-7.15 0,-7.15 C0,-7.15 0,-7.15 0,-7.15 C0.95,-7.15 1.72,-6.38 1.72,-5.43z "/></g><g id="_R_G_L_3_G" transform=" translate(158.744, 172.598) rotate(-180)"><path id="_R_G_L_3_G_D_0_P_0" fill="#ff612b" fill-opacity="1" fill-rule="nonzero" d=" M1.72 -10.8 C1.72,-10.8 1.72,10.8 1.72,10.8 C1.72,11.75 0.95,12.52 0,12.52 C0,12.52 0,12.52 0,12.52 C-0.95,12.52 -1.72,11.75 -1.72,10.8 C-1.72,10.8 -1.72,-10.8 -1.72,-10.8 C-1.72,-11.75 -0.95,-12.52 0,-12.52 C0,-12.52 0,-12.52 0,-12.52 C0.95,-12.52 1.72,-11.75 1.72,-10.8z "/></g><g id="_R_G_L_2_G" transform=" translate(151.863, 172.598) rotate(-180)"><path id="_R_G_L_2_G_D_0_P_0" fill="#ff612b" fill-opacity="1" fill-rule="nonzero" d=" M1.72 -7.82 C1.72,-7.82 1.72,7.82 1.72,7.82 C1.72,8.77 0.95,9.54 0,9.54 C0,9.54 0,9.54 0,9.54 C-0.95,9.54 -1.72,8.77 -1.72,7.82 C-1.72,7.82 -1.72,-7.82 -1.72,-7.82 C-1.72,-8.77 -0.95,-9.54 0,-9.54 C0,-9.54 0,-9.54 0,-9.54 C0.95,-9.54 1.72,-8.77 1.72,-7.82z "/></g><g id="_R_G_L_1_G" transform=" translate(144.985, 172.598) rotate(-180)"><path id="_R_G_L_1_G_D_0_P_0" fill="#ff612b" fill-opacity="1" fill-rule="nonzero" d=" M1.72 -3.05 C1.72,-3.05 1.72,3.05 1.72,3.05 C1.72,4 0.95,4.77 0,4.77 C0,4.77 0,4.77 0,4.77 C-0.95,4.77 -1.72,4 -1.72,3.05 C-1.72,3.05 -1.72,-3.05 -1.72,-3.05 C-1.72,-4 -0.95,-4.77 0,-4.77 C0,-4.77 0,-4.77 0,-4.77 C0.95,-4.77 1.72,-4 1.72,-3.05z "/></g><g id="_R_G_L_0_G" transform=" translate(138.1, 172.598) rotate(-180)"><path id="_R_G_L_0_G_D_0_P_0" fill="#ff612b" fill-opacity="1" fill-rule="nonzero" d=" M1.72 -0.66 C1.72,-0.66 1.72,0.66 1.72,0.66 C1.72,1.61 0.95,2.38 0,2.38 C0,2.38 0,2.38 0,2.38 C-0.95,2.38 -1.72,1.61 -1.72,0.66 C-1.72,0.66 -1.72,-0.66 -1.72,-0.66 C-1.72,-1.61 -0.95,-2.38 0,-2.38 C0,-2.38 0,-2.38 0,-2.38 C0.95,-2.38 1.72,-1.61 1.72,-0.66z "/></g></g><g id="time_group"/></svg>